<svg width="530" height="163" viewBox="0 0 530 163" fill="none" xmlns="http://www.w3.org/2000/svg">
<path d="M39.9102 20.0117C42.0195 20.0117 43.875 20.207 45.4766 20.5977C47.0781 20.9883 48.4844 21.4375 49.6953 21.9453C50.9453 22.4141 52.0195 22.8437 52.918 23.2344C53.8555 23.625 54.6758 23.8203 55.3789 23.8203C55.8867 23.8203 56.3164 23.6055 56.668 23.1758C57.0195 22.7461 57.332 22.2188 57.6055 21.5938C57.8789 20.9687 58.1133 20.2852 58.3086 19.543C58.5039 18.8008 58.6992 18.1172 58.8945 17.4922C59.1289 16.5938 59.3828 15.832 59.6562 15.207C59.9688 14.543 60.3984 14.2109 60.9453 14.2109C61.5703 14.2109 61.8828 14.7773 61.8828 15.9102C61.8828 16.5352 61.8047 17.2383 61.6484 18.0195C61.5312 18.8008 61.3555 19.7383 61.1211 20.832C60.9258 21.8867 60.6914 23.1367 60.418 24.582C60.1836 25.9883 59.9492 27.6289 59.7148 29.5039C59.4023 31.8086 59.1875 33.8594 59.0703 35.6562C58.9922 37.4141 58.9141 38.8984 58.8359 40.1094C58.7578 41.2812 58.6406 42.1797 58.4844 42.8047C58.3672 43.4297 58.1328 43.7422 57.7812 43.7422C57.5078 43.7422 57.293 43.6055 57.1367 43.332C56.9805 43.0195 56.8438 42.6484 56.7266 42.2188C56.6094 41.7891 56.5117 41.3594 56.4336 40.9297C56.3555 40.5 56.2969 40.1289 56.2578 39.8164C56.0625 38.8008 55.8086 37.6875 55.4961 36.4766C55.2227 35.2266 54.832 33.9766 54.3242 32.7266C53.8164 31.4375 53.1914 30.1875 52.4492 28.9766C51.707 27.7656 50.7695 26.6914 49.6367 25.7539C48.543 24.8164 47.2344 24.0742 45.7109 23.5273C44.1875 22.9414 42.4102 22.6484 40.3789 22.6484C36.707 22.6484 33.8555 23.7422 31.8242 25.9297C29.793 28.1172 28.7773 31.3398 28.7773 35.5977C28.7773 37.7461 29.2852 39.9336 30.3008 42.1602C31.3555 44.3477 32.7227 46.6133 34.4023 48.957C36.1211 51.3008 38.0547 53.7031 40.2031 56.1641C42.3516 58.625 44.5586 61.1641 46.8242 63.7812C49.0898 66.3984 51.2969 69.0938 53.4453 71.8672C55.5938 74.6406 57.5078 77.5117 59.1875 80.4805C60.9062 83.4492 62.2734 86.5352 63.2891 89.7383C64.3438 92.9023 64.8711 96.1836 64.8711 99.582C64.8711 104.27 64.1094 108.352 62.5859 111.828C61.0625 115.266 59.0117 118.117 56.4336 120.383C53.8555 122.688 50.8672 124.387 47.4688 125.48C44.0703 126.613 40.5156 127.18 36.8047 127.18C33.9141 127.18 31.375 126.828 29.1875 126.125C27.0391 125.461 25.0859 124.719 23.3281 123.898C21.6094 123.117 20.0273 122.375 18.582 121.672C17.1758 121.008 15.7695 120.676 14.3633 120.676C13.2695 120.676 12.2539 121.008 11.3164 121.672C10.418 122.336 9.57812 123.059 8.79688 123.84C8.05469 124.66 7.39062 125.402 6.80469 126.066C6.25781 126.73 5.80859 127.062 5.45703 127.062C5.14453 127.062 4.94922 126.945 4.87109 126.711C4.79297 126.516 4.75391 126.262 4.75391 125.949C4.75391 125.637 4.8125 125.109 4.92969 124.367C5.04688 123.664 5.16406 122.805 5.28125 121.789C5.4375 120.773 5.57422 119.621 5.69141 118.332C5.80859 117.043 5.86719 115.656 5.86719 114.172C5.86719 111.516 5.61328 108.801 5.10547 106.027C4.59766 103.215 4.03125 100.578 3.40625 98.1172C2.78125 95.6562 2.21484 93.4883 1.70703 91.6133C1.19922 89.7383 0.945312 88.3906 0.945312 87.5703C0.945312 87.2188 1.02344 86.8867 1.17969 86.5742C1.29688 86.2617 1.57031 86.1055 2 86.1055C2.58594 86.1055 3.13281 86.5352 3.64062 87.3945C4.14844 88.2148 4.67578 89.3086 5.22266 90.6758C5.57422 91.6133 6.02344 92.7656 6.57031 94.1328C7.15625 95.5 7.80078 96.9844 8.50391 98.5859C9.20703 100.148 9.96875 101.789 10.7891 103.508C11.6484 105.227 12.5664 106.906 13.543 108.547C15.2227 111.438 16.9805 113.84 18.8164 115.754C20.6523 117.668 22.5273 119.191 24.4414 120.324C26.3945 121.496 28.3672 122.316 30.3594 122.785C32.3516 123.293 34.3438 123.547 36.3359 123.547C38.7188 123.547 40.7695 123.098 42.4883 122.199C44.2461 121.301 45.6914 120.129 46.8242 118.684C47.957 117.238 48.7773 115.617 49.2852 113.82C49.832 112.023 50.1055 110.227 50.1055 108.43C50.1055 104.875 49.6172 101.555 48.6406 98.4688C47.7031 95.3438 46.4531 92.375 44.8906 89.5625C43.3672 86.7109 41.6094 83.9766 39.6172 81.3594C37.625 78.7422 35.5742 76.1836 33.4648 73.6836C31.3945 71.1836 29.3633 68.7031 27.3711 66.2422C25.3789 63.7812 23.6016 61.2812 22.0391 58.7422C20.5156 56.1641 19.2656 53.5273 18.2891 50.832C17.3516 48.0977 16.8828 45.2266 16.8828 42.2188C16.8828 39.2891 17.2539 36.7109 17.9961 34.4844C18.7383 32.2578 19.7148 30.3242 20.9258 28.6836C22.1758 27.043 23.582 25.6758 25.1445 24.582C26.7461 23.4492 28.3867 22.5508 30.0664 21.8867C31.7852 21.2227 33.4844 20.7539 35.1641 20.4805C36.8828 20.168 38.4648 20.0117 39.9102 20.0117ZM89.3047 51.8281C89.3047 52.375 89.2852 53.2539 89.2461 54.4648C89.207 55.6758 89.1875 57.1016 89.1875 58.7422C89.1875 59.6797 89.1875 60.4219 89.1875 60.9688C89.2266 61.5156 89.2461 62.043 89.2461 62.5508C89.2461 63.0586 89.2461 63.6445 89.2461 64.3086C89.2852 64.9727 89.3047 65.8906 89.3047 67.0625C90.5547 65.3438 92 63.8008 93.6406 62.4336C94.3438 61.8477 95.125 61.2812 95.9844 60.7344C96.8438 60.1875 97.7812 59.6992 98.7969 59.2695C99.8516 58.8398 100.945 58.4883 102.078 58.2148C103.25 57.9414 104.48 57.8047 105.77 57.8047C108.582 57.8047 111.082 58.3125 113.27 59.3281C115.457 60.3438 117.293 61.7695 118.777 63.6055C120.301 65.4023 121.453 67.5703 122.234 70.1094C123.016 72.6094 123.406 75.3828 123.406 78.4297C123.406 83 122.801 87.1016 121.59 90.7344C120.379 94.3672 118.738 97.4727 116.668 100.051C114.598 102.59 112.176 104.543 109.402 105.91C106.629 107.277 103.66 107.961 100.496 107.961C99.3633 107.961 98.2891 107.863 97.2734 107.668C96.2969 107.473 95.3789 107.219 94.5195 106.906C93.6602 106.594 92.8594 106.262 92.1172 105.91C91.4141 105.52 90.7891 105.168 90.2422 104.855C90.2031 106.457 90.1641 107.883 90.125 109.133C90.125 110.344 90.125 111.535 90.125 112.707C90.125 113.879 90.125 115.09 90.125 116.34C90.125 117.59 90.125 119.035 90.125 120.676C90.125 123.332 90.1445 126.262 90.1836 129.465C90.2617 132.668 90.3984 135.793 90.5938 138.84C90.8281 141.926 91.1406 144.738 91.5312 147.277C91.9219 149.816 92.4688 151.711 93.1719 152.961C93.8359 154.172 94.6562 155.129 95.6328 155.832C96.6094 156.535 97.5859 157.102 98.5625 157.531C99.7734 158.078 100.828 158.625 101.727 159.172C102.664 159.719 103.133 160.285 103.133 160.871C103.133 161.301 102.996 161.652 102.723 161.926C102.449 162.199 101.98 162.336 101.316 162.336C100.262 162.336 98.7773 162.16 96.8633 161.809C94.9883 161.496 92.9375 161.145 90.7109 160.754C88.5234 160.363 86.3359 159.992 84.1484 159.641C81.9609 159.328 80.0469 159.172 78.4062 159.172C76.6484 159.172 75.1836 159.23 74.0117 159.348C72.8398 159.504 71.6094 159.582 70.3203 159.582C68.6016 159.582 67.4297 159.465 66.8047 159.23C66.2188 159.035 65.9258 158.781 65.9258 158.469C65.9258 158.117 66.1211 157.883 66.5117 157.766C66.9023 157.648 67.4297 157.531 68.0938 157.414C68.7578 157.297 69.5 157.102 70.3203 156.828C71.1406 156.594 72 156.184 72.8984 155.598C73.8359 154.934 74.5781 154.094 75.125 153.078C75.7109 152.102 76.1602 151.008 76.4727 149.797C76.7852 148.586 77 147.316 77.1172 145.988C77.2344 144.699 77.332 143.43 77.4102 142.18C77.4883 141.203 77.5664 139.699 77.6445 137.668C77.7227 135.676 77.8008 133.332 77.8789 130.637C77.957 127.98 78.0352 125.07 78.1133 121.906C78.2305 118.742 78.3281 115.48 78.4062 112.121C78.4844 108.762 78.5625 105.422 78.6406 102.102C78.7188 98.7422 78.7773 95.5586 78.8164 92.5508C78.8555 89.543 78.8945 86.7891 78.9336 84.2891C78.9727 81.75 78.9922 79.6406 78.9922 77.9609C78.9922 75.4609 78.9141 73.4102 78.7578 71.8086C78.6406 70.168 78.4258 68.8789 78.1133 67.9414C77.8008 66.9648 77.3906 66.3008 76.8828 65.9492C76.375 65.5586 75.75 65.3633 75.0078 65.3633C74.4219 65.3633 73.7969 65.4805 73.1328 65.7148C72.5078 65.9492 71.8633 66.2031 71.1992 66.4766C70.5742 66.7109 69.9883 66.9453 69.4414 67.1797C68.8945 67.4141 68.4453 67.5312 68.0938 67.5312C67.4297 67.5312 67.0977 67.1992 67.0977 66.5352C67.0977 66.3008 67.2148 66.0273 67.4492 65.7148C67.6836 65.4023 68.2891 65.0117 69.2656 64.543C69.8906 64.1914 70.6328 63.8398 71.4922 63.4883C72.3516 63.0977 73.2695 62.668 74.2461 62.1992C75.2617 61.6914 76.2969 61.1055 77.3516 60.4414C78.4453 59.7383 79.5195 58.8984 80.5742 57.9219C81.9805 56.6328 83.1133 55.4805 83.9727 54.4648C84.8711 53.4492 85.5938 52.6094 86.1406 51.9453C86.7266 51.2422 87.1758 50.7148 87.4883 50.3633C87.8398 49.9727 88.1719 49.7773 88.4844 49.7773C88.8359 49.7773 89.0508 49.9922 89.1289 50.4219C89.2461 50.8125 89.3047 51.2812 89.3047 51.8281ZM100.086 63.5469C98.4062 63.5469 96.9414 63.9375 95.6914 64.7188C94.4805 65.5 93.4453 66.5352 92.5859 67.8242C91.7266 69.1133 91.0234 70.5781 90.4766 72.2188C89.9688 73.8594 89.5586 75.5586 89.2461 77.3164C88.9336 79.0352 88.7188 80.7344 88.6016 82.4141C88.5234 84.0547 88.4844 85.5391 88.4844 86.8672C88.4844 88.9375 88.6211 91.0273 88.8945 93.1367C89.207 95.207 89.7344 97.082 90.4766 98.7617C91.2578 100.402 92.3125 101.75 93.6406 102.805C94.9688 103.859 96.6484 104.387 98.6797 104.387C100.281 104.387 101.805 103.977 103.25 103.156C104.734 102.336 106.023 101.027 107.117 99.2305C108.25 97.3945 109.148 95.0117 109.812 92.082C110.477 89.1133 110.809 85.5195 110.809 81.3008C110.809 78.7227 110.613 76.3594 110.223 74.2109C109.832 72.0234 109.207 70.1484 108.348 68.5859C107.488 66.9844 106.375 65.7539 105.008 64.8945C103.641 63.9961 102 63.5469 100.086 63.5469ZM186.863 53.8203C187.449 53.8203 187.84 53.8984 188.035 54.0547C188.27 54.2109 188.387 54.4258 188.387 54.6992C188.387 55.2461 187.801 55.8711 186.629 56.5742C185.105 57.5508 183.562 58.6641 182 59.9141C180.438 61.1641 179.051 62.7852 177.84 64.7773C178.465 66.5352 178.953 68.332 179.305 70.168C179.695 72.0039 179.891 73.918 179.891 75.9102C179.891 78.2539 179.656 80.5 179.188 82.6484C178.758 84.7578 178.152 86.75 177.371 88.625C177.762 89.2891 178.289 89.9336 178.953 90.5586C179.617 91.1836 180.379 91.75 181.238 92.2578C182.137 92.7656 183.133 93.1758 184.227 93.4883C185.359 93.7617 186.551 93.8984 187.801 93.8984C189.793 93.8984 191.59 93.4883 193.191 92.668C194.832 91.8477 196.238 90.7148 197.41 89.2695C198.582 87.8242 199.48 86.1055 200.105 84.1133C200.77 82.1211 201.102 79.9531 201.102 77.6094C201.102 74.1719 200.613 70.832 199.637 67.5898C198.66 64.3477 197.195 61.6523 195.242 59.5039C195.008 59.1914 194.734 58.8984 194.422 58.625C194.109 58.3125 193.797 58 193.484 57.6875C193.211 57.3359 192.977 57.0039 192.781 56.6914C192.586 56.3398 192.488 55.9883 192.488 55.6367C192.488 55.0508 192.664 54.582 193.016 54.2305C193.367 53.8789 193.875 53.7031 194.539 53.7031C195.438 53.7031 196.492 53.7617 197.703 53.8789C198.953 53.9961 200.34 54.0547 201.863 54.0547C204.676 54.0547 207.469 53.7617 210.242 53.1758C213.016 52.5898 215.652 51.7891 218.152 50.7734C220.691 49.7188 223.055 48.5078 225.242 47.1406C227.43 45.7734 229.344 44.2891 230.984 42.6875C232.625 41.125 234.07 39.4648 235.32 37.707C236.609 35.9492 237.684 34.1914 238.543 32.4336C239.441 30.6758 240.125 28.957 240.594 27.2773C241.062 25.5977 241.297 24.0156 241.297 22.5312C241.297 21.2813 241.043 20.207 240.535 19.3086C240.066 18.4102 239.461 17.6289 238.719 16.9648C238.016 16.2617 237.234 15.6172 236.375 15.0312C235.516 14.4062 234.715 13.7617 233.973 13.0977C233.27 12.3945 232.664 11.6133 232.156 10.7539C231.688 9.89453 231.453 8.85938 231.453 7.64844C231.453 5.65625 232.098 4.01562 233.387 2.72656C234.676 1.4375 236.512 0.792969 238.895 0.792969C240.066 0.792969 241.199 1.00781 242.293 1.4375C243.387 1.82813 244.344 2.45312 245.164 3.3125C245.984 4.17188 246.648 5.26562 247.156 6.59375C247.664 7.88281 247.918 9.42578 247.918 11.2227C247.918 13.4102 247.625 15.9102 247.039 18.7227C246.453 21.5352 245.535 24.4453 244.285 27.4531C243.074 30.4219 241.531 33.3906 239.656 36.3594C237.781 39.2891 235.535 42.0039 232.918 44.5039C230.145 47.1602 227.273 49.2891 224.305 50.8906C221.336 52.4922 218.504 53.7617 215.809 54.6992C213.152 55.5977 210.75 56.2227 208.602 56.5742C206.492 56.8867 204.91 57.0625 203.855 57.1016C204.168 57.2969 204.832 57.8438 205.848 58.7422C206.863 59.6016 207.918 60.793 209.012 62.3164C210.105 63.8008 211.082 65.6172 211.941 67.7656C212.801 69.9141 213.23 72.3555 213.23 75.0898C213.23 78.6055 212.566 81.75 211.238 84.5234C209.949 87.2578 208.191 89.5625 205.965 91.4375C203.738 93.3125 201.141 94.7383 198.172 95.7148C195.203 96.6914 192.059 97.1797 188.738 97.1797C186.16 97.1797 183.68 96.9062 181.297 96.3594C178.914 95.7734 176.727 94.9141 174.734 93.7812C172.43 97.2188 169.461 99.9531 165.828 101.984C162.195 103.977 157.996 104.973 153.23 104.973C150.027 104.973 146.863 104.504 143.738 103.566C140.652 102.59 137.879 101.066 135.418 98.9961C132.957 96.9258 130.965 94.2695 129.441 91.0273C127.957 87.7461 127.215 83.7812 127.215 79.1328C127.215 74.2109 127.957 69.8555 129.441 66.0664C130.965 62.2773 133.016 59.1133 135.594 56.5742C138.172 53.9961 141.18 52.0625 144.617 50.7734C148.055 49.4453 151.688 48.7812 155.516 48.7812C157.547 48.7812 159.5 49.0156 161.375 49.4844C163.289 49.9531 165.066 50.6367 166.707 51.5352C168.387 52.3945 169.91 53.4492 171.277 54.6992C172.645 55.9102 173.836 57.2578 174.852 58.7422C175.984 57.9219 177.137 57.1992 178.309 56.5742C179.48 55.9492 180.594 55.4414 181.648 55.0508C182.742 54.6211 183.738 54.3086 184.637 54.1133C185.535 53.918 186.277 53.8203 186.863 53.8203ZM156.629 51.1836C154.168 51.1836 151.863 51.7891 149.715 53C147.605 54.2109 145.75 56.0469 144.148 58.5078C142.586 60.9688 141.355 64.0352 140.457 67.707C139.559 71.3789 139.109 75.6758 139.109 80.5977C139.109 83.7227 139.422 86.5352 140.047 89.0352C140.711 91.4961 141.629 93.5859 142.801 95.3047C144.012 97.0234 145.457 98.3516 147.137 99.2891C148.816 100.188 150.691 100.637 152.762 100.637C154.754 100.637 156.551 100.246 158.152 99.4648C159.793 98.6836 161.238 97.6289 162.488 96.3008C163.738 94.9727 164.773 93.4492 165.594 91.7305C166.453 89.9727 167.098 88.1367 167.527 86.2227C166.863 84.8945 166.316 83.4102 165.887 81.7695C165.457 80.1289 165.242 78.3711 165.242 76.4961C165.242 74.0742 165.613 71.8086 166.355 69.6992C167.137 67.5508 168.094 65.6562 169.227 64.0156C168.562 59.7578 167.098 56.5547 164.832 54.4062C162.605 52.2578 159.871 51.1836 156.629 51.1836ZM231.453 37.5312C231.766 37.5312 232.078 38.0391 232.391 39.0547C232.703 40.0313 233.016 41.3203 233.328 42.9219C233.641 44.5234 233.953 46.3789 234.266 48.4883C234.578 50.5586 234.891 52.668 235.203 54.8164L237.312 69.582C237.508 68.293 237.84 66.8086 238.309 65.1289C238.816 63.4492 239.48 61.7109 240.301 59.9141C241.121 58.1172 242.117 56.3594 243.289 54.6406C244.461 52.9219 245.809 51.3789 247.332 50.0117C248.895 48.6445 250.633 47.5508 252.547 46.7305C254.5 45.8711 256.668 45.4414 259.051 45.4414C261.98 45.4414 264.52 46.0078 266.668 47.1406C268.816 48.2344 270.594 49.7773 272 51.7695C273.406 53.7227 274.441 56.0664 275.105 58.8008C275.77 61.5352 276.102 64.5234 276.102 67.7656C276.102 70.6953 275.926 73.6445 275.574 76.6133C275.262 79.543 274.91 82.4336 274.52 85.2852C274.168 88.1367 273.816 90.8906 273.465 93.5469C273.152 96.2031 272.996 98.6836 272.996 100.988C272.996 102.355 273.113 103.547 273.348 104.562C273.582 105.578 273.934 106.516 274.402 107.375C274.949 108.195 275.613 108.918 276.395 109.543C277.215 110.129 277.977 110.695 278.68 111.242C279.422 111.75 280.047 112.277 280.555 112.824C281.102 113.332 281.375 113.879 281.375 114.465C281.375 114.816 281.277 115.109 281.082 115.344C280.887 115.617 280.555 115.754 280.086 115.754C279.383 115.754 278.602 115.48 277.742 114.934C276.922 114.426 275.887 113.781 274.637 113C273.426 112.18 271.961 111.32 270.242 110.422C268.523 109.484 266.434 108.625 263.973 107.844C262.137 107.219 260.281 106.73 258.406 106.379C256.57 106.027 254.422 105.793 251.961 105.676C250.594 105.559 249.91 105.168 249.91 104.504C249.91 103.762 250.359 103.391 251.258 103.391C251.805 103.391 252.566 103.391 253.543 103.391C254.52 103.391 255.516 103.352 256.531 103.273C258.094 103.156 259.383 102.688 260.398 101.867C261.414 101.008 262.176 99.4453 262.684 97.1797C262.84 96.2812 262.996 95.1484 263.152 93.7812C263.309 92.375 263.445 90.8906 263.562 89.3281C263.68 87.7266 263.777 86.1055 263.855 84.4648C263.934 82.8242 263.973 81.2617 263.973 79.7773C263.973 78.4492 263.953 76.9258 263.914 75.207C263.875 73.4492 263.738 71.6328 263.504 69.7578C263.309 67.8828 262.977 66.0469 262.508 64.25C262.078 62.4531 261.434 60.8516 260.574 59.4453C259.715 58.0391 258.621 56.9062 257.293 56.0469C255.965 55.1484 254.344 54.6992 252.43 54.6992C250.789 54.6992 249.285 55.1094 247.918 55.9297C246.59 56.75 245.398 57.9023 244.344 59.3867C243.289 60.832 242.391 62.5508 241.648 64.543C240.906 66.5352 240.34 68.7227 239.949 71.1055C239.52 73.5273 239.227 76.0273 239.07 78.6055C238.953 81.1445 238.895 83.6836 238.895 86.2227C238.895 88.3711 238.973 90.4414 239.129 92.4336C239.285 94.3867 239.5 96.2031 239.773 97.8828C240.047 99.5234 240.379 100.988 240.77 102.277C241.16 103.566 241.609 104.582 242.117 105.324C242.859 106.34 243.66 107.102 244.52 107.609C245.379 108.117 246.102 108.469 246.688 108.664C247.469 108.898 248.016 109.113 248.328 109.309C248.68 109.465 248.855 109.699 248.855 110.012C248.855 110.246 248.66 110.461 248.27 110.656C247.918 110.852 247.312 110.949 246.453 110.949C245.633 110.949 244.734 110.891 243.758 110.773C242.781 110.617 241.766 110.461 240.711 110.305C239.656 110.148 238.562 110.012 237.43 109.895C236.297 109.738 235.184 109.66 234.09 109.66C232.996 109.66 231.883 109.699 230.75 109.777C229.617 109.855 228.523 109.934 227.469 110.012C226.453 110.09 225.516 110.168 224.656 110.246C223.797 110.324 223.113 110.363 222.605 110.363C221.082 110.363 220.32 109.875 220.32 108.898C220.32 108.547 220.438 108.254 220.672 108.02C220.945 107.746 221.414 107.57 222.078 107.492C222.625 107.453 223.113 107.414 223.543 107.375C223.973 107.336 224.402 107.316 224.832 107.316C225.301 107.277 225.77 107.238 226.238 107.199C226.746 107.16 227.332 107.102 227.996 107.023C229.246 106.828 230.086 106.379 230.516 105.676C230.984 104.934 231.219 103.938 231.219 102.688C231.219 100.539 231.023 97.9219 230.633 94.8359C230.281 91.75 229.793 88.3516 229.168 84.6406C228.543 80.9297 227.781 77.0039 226.883 72.8633C226.023 68.6836 225.105 64.4258 224.129 60.0898C223.66 57.8633 223.113 56.2031 222.488 55.1094C221.902 54.0156 221.043 53.4688 219.91 53.4688C219.324 53.4688 218.719 53.5859 218.094 53.8203C217.469 54.0156 216.844 54.25 216.219 54.5234C215.633 54.7578 215.066 54.9922 214.52 55.2266C213.973 55.4219 213.465 55.5195 212.996 55.5195C212.254 55.5195 211.883 55.207 211.883 54.582C211.883 54.0742 212.078 53.7227 212.469 53.5273C212.898 53.293 213.348 53.0781 213.816 52.8828C214.91 52.4531 216.082 51.9062 217.332 51.2422C218.621 50.5781 220.008 49.6797 221.492 48.5469C222.938 47.4141 224.227 46.2031 225.359 44.9141C226.492 43.625 227.469 42.4336 228.289 41.3398C229.109 40.2461 229.773 39.3477 230.281 38.6445C230.789 37.9023 231.18 37.5312 231.453 37.5312ZM319.402 20.0117C321.512 20.0117 323.367 20.207 324.969 20.5977C326.57 20.9883 327.977 21.4375 329.188 21.9453C330.438 22.4141 331.512 22.8437 332.41 23.2344C333.348 23.625 334.168 23.8203 334.871 23.8203C335.379 23.8203 335.809 23.6055 336.16 23.1758C336.512 22.7461 336.824 22.2188 337.098 21.5938C337.371 20.9687 337.605 20.2852 337.801 19.543C337.996 18.8008 338.191 18.1172 338.387 17.4922C338.621 16.5938 338.875 15.832 339.148 15.207C339.461 14.543 339.891 14.2109 340.438 14.2109C341.062 14.2109 341.375 14.7773 341.375 15.9102C341.375 16.5352 341.297 17.2383 341.141 18.0195C341.023 18.8008 340.848 19.7383 340.613 20.832C340.418 21.8867 340.184 23.1367 339.91 24.582C339.676 25.9883 339.441 27.6289 339.207 29.5039C338.895 31.8086 338.68 33.8594 338.562 35.6562C338.484 37.4141 338.406 38.8984 338.328 40.1094C338.25 41.2812 338.133 42.1797 337.977 42.8047C337.859 43.4297 337.625 43.7422 337.273 43.7422C337 43.7422 336.785 43.6055 336.629 43.332C336.473 43.0195 336.336 42.6484 336.219 42.2188C336.102 41.7891 336.004 41.3594 335.926 40.9297C335.848 40.5 335.789 40.1289 335.75 39.8164C335.555 38.8008 335.301 37.6875 334.988 36.4766C334.715 35.2266 334.324 33.9766 333.816 32.7266C333.309 31.4375 332.684 30.1875 331.941 28.9766C331.199 27.7656 330.262 26.6914 329.129 25.7539C328.035 24.8164 326.727 24.0742 325.203 23.5273C323.68 22.9414 321.902 22.6484 319.871 22.6484C316.199 22.6484 313.348 23.7422 311.316 25.9297C309.285 28.1172 308.27 31.3398 308.27 35.5977C308.27 37.7461 308.777 39.9336 309.793 42.1602C310.848 44.3477 312.215 46.6133 313.895 48.957C315.613 51.3008 317.547 53.7031 319.695 56.1641C321.844 58.625 324.051 61.1641 326.316 63.7812C328.582 66.3984 330.789 69.0938 332.938 71.8672C335.086 74.6406 337 77.5117 338.68 80.4805C340.398 83.4492 341.766 86.5352 342.781 89.7383C343.836 92.9023 344.363 96.1836 344.363 99.582C344.363 104.27 343.602 108.352 342.078 111.828C340.555 115.266 338.504 118.117 335.926 120.383C333.348 122.688 330.359 124.387 326.961 125.48C323.562 126.613 320.008 127.18 316.297 127.18C313.406 127.18 310.867 126.828 308.68 126.125C306.531 125.461 304.578 124.719 302.82 123.898C301.102 123.117 299.52 122.375 298.074 121.672C296.668 121.008 295.262 120.676 293.855 120.676C292.762 120.676 291.746 121.008 290.809 121.672C289.91 122.336 289.07 123.059 288.289 123.84C287.547 124.66 286.883 125.402 286.297 126.066C285.75 126.73 285.301 127.062 284.949 127.062C284.637 127.062 284.441 126.945 284.363 126.711C284.285 126.516 284.246 126.262 284.246 125.949C284.246 125.637 284.305 125.109 284.422 124.367C284.539 123.664 284.656 122.805 284.773 121.789C284.93 120.773 285.066 119.621 285.184 118.332C285.301 117.043 285.359 115.656 285.359 114.172C285.359 111.516 285.105 108.801 284.598 106.027C284.09 103.215 283.523 100.578 282.898 98.1172C282.273 95.6562 281.707 93.4883 281.199 91.6133C280.691 89.7383 280.438 88.3906 280.438 87.5703C280.438 87.2188 280.516 86.8867 280.672 86.5742C280.789 86.2617 281.062 86.1055 281.492 86.1055C282.078 86.1055 282.625 86.5352 283.133 87.3945C283.641 88.2148 284.168 89.3086 284.715 90.6758C285.066 91.6133 285.516 92.7656 286.062 94.1328C286.648 95.5 287.293 96.9844 287.996 98.5859C288.699 100.148 289.461 101.789 290.281 103.508C291.141 105.227 292.059 106.906 293.035 108.547C294.715 111.438 296.473 113.84 298.309 115.754C300.145 117.668 302.02 119.191 303.934 120.324C305.887 121.496 307.859 122.316 309.852 122.785C311.844 123.293 313.836 123.547 315.828 123.547C318.211 123.547 320.262 123.098 321.98 122.199C323.738 121.301 325.184 120.129 326.316 118.684C327.449 117.238 328.27 115.617 328.777 113.82C329.324 112.023 329.598 110.227 329.598 108.43C329.598 104.875 329.109 101.555 328.133 98.4688C327.195 95.3438 325.945 92.375 324.383 89.5625C322.859 86.7109 321.102 83.9766 319.109 81.3594C317.117 78.7422 315.066 76.1836 312.957 73.6836C310.887 71.1836 308.855 68.7031 306.863 66.2422C304.871 63.7812 303.094 61.2812 301.531 58.7422C300.008 56.1641 298.758 53.5273 297.781 50.832C296.844 48.0977 296.375 45.2266 296.375 42.2188C296.375 39.2891 296.746 36.7109 297.488 34.4844C298.23 32.2578 299.207 30.3242 300.418 28.6836C301.668 27.043 303.074 25.6758 304.637 24.582C306.238 23.4492 307.879 22.5508 309.559 21.8867C311.277 21.2227 312.977 20.7539 314.656 20.4805C316.375 20.168 317.957 20.0117 319.402 20.0117ZM365.926 70.7539C364.48 70.7539 363.113 70.4805 361.824 69.9336C360.574 69.3867 359.48 68.5664 358.543 67.4727C357.605 66.3789 356.863 65.0117 356.316 63.3711C355.77 61.7305 355.496 59.7969 355.496 57.5703C355.496 55.1484 355.828 52.7852 356.492 50.4805C357.195 48.1367 358.27 46.0664 359.715 44.2695C361.16 42.4336 362.996 40.9688 365.223 39.875C367.488 38.7812 370.203 38.2344 373.367 38.2344C375.984 38.2344 378.289 38.5859 380.281 39.2891C382.312 39.9531 384.09 40.8711 385.613 42.043C387.137 43.1758 388.426 44.5039 389.48 46.0273C390.574 47.5508 391.492 49.1523 392.234 50.832C392.977 52.4727 393.582 54.1523 394.051 55.8711C394.559 57.5508 394.988 59.1523 395.34 60.6758C395.535 61.5352 395.77 62.7656 396.043 64.3672C396.355 65.9297 396.688 67.7461 397.039 69.8164C397.391 71.8867 397.762 74.1133 398.152 76.4961C398.543 78.8398 398.934 81.2227 399.324 83.6445C399.715 86.0664 400.086 88.4297 400.438 90.7344C400.828 93 401.18 95.0898 401.492 97.0039C401.805 98.8789 402.059 100.5 402.254 101.867C402.488 103.195 402.664 104.113 402.781 104.621C403.016 105.832 403.27 107.062 403.543 108.312C403.855 109.562 404.227 110.715 404.656 111.77C405.125 112.785 405.691 113.625 406.355 114.289C407.02 114.953 407.859 115.285 408.875 115.285C409.461 115.285 409.969 115.148 410.398 114.875C410.828 114.602 411.16 114.23 411.395 113.762C411.668 113.293 411.863 112.766 411.98 112.18C412.098 111.594 412.156 110.988 412.156 110.363C412.156 109.621 412.137 108.879 412.098 108.137C412.059 107.355 412.039 106.691 412.039 106.145C412.039 105.559 412.117 105.051 412.273 104.621C412.43 104.191 412.742 103.977 413.211 103.977C413.641 103.977 413.973 104.23 414.207 104.738C414.48 105.207 414.676 105.773 414.793 106.438C414.949 107.062 415.047 107.707 415.086 108.371C415.125 108.996 415.145 109.465 415.145 109.777C415.145 111.145 415.027 112.688 414.793 114.406C414.559 116.125 414.07 117.785 413.328 119.387C412.625 121.027 411.453 122.375 409.812 123.43C408.172 124.484 406.277 125.012 404.129 125.012C402.254 125.012 400.633 124.738 399.266 124.191C397.938 123.645 396.785 122.961 395.809 122.141C394.871 121.32 394.07 120.441 393.406 119.504C392.781 118.566 392.273 117.688 391.883 116.867C390.789 114.758 389.949 112.453 389.363 109.953C388.816 107.414 388.367 104.992 388.016 102.688C387.43 103.664 386.531 104.875 385.32 106.32C384.148 107.766 382.684 109.152 380.926 110.48C379.168 111.809 377.137 112.941 374.832 113.879C372.527 114.816 369.969 115.285 367.156 115.285C364.031 115.285 361.355 114.836 359.129 113.938C356.941 113.078 355.145 111.906 353.738 110.422C352.332 108.898 351.297 107.141 350.633 105.148C349.969 103.117 349.637 100.969 349.637 98.7031C349.637 96.2812 350.086 93.8398 350.984 91.3789C351.883 88.918 353.348 86.6914 355.379 84.6992C357.449 82.707 360.125 81.0859 363.406 79.8359C366.727 78.5859 370.77 77.9609 375.535 77.9609C376.629 77.9609 377.684 78.0195 378.699 78.1367C379.754 78.2148 380.691 78.3125 381.512 78.4297C382.371 78.5469 383.094 78.6641 383.68 78.7812C384.305 78.8984 384.754 78.9766 385.027 79.0156C384.793 75.6562 384.5 72.2969 384.148 68.9375C383.992 67.5312 383.816 66.0469 383.621 64.4844C383.465 62.9219 383.289 61.3594 383.094 59.7969C382.898 58.1953 382.684 56.6328 382.449 55.1094C382.215 53.5859 381.961 52.1602 381.688 50.832C381.062 47.8242 379.832 45.4414 377.996 43.6836C376.199 41.8867 373.895 40.9883 371.082 40.9883C369.559 40.9883 368.211 41.2617 367.039 41.8086C365.906 42.3555 364.93 43.0586 364.109 43.918C363.328 44.7773 362.742 45.7539 362.352 46.8477C361.961 47.9023 361.766 48.957 361.766 50.0117C361.766 51.1445 362.039 52.1016 362.586 52.8828C363.133 53.625 363.797 54.2891 364.578 54.875C365.398 55.4609 366.277 56.0273 367.215 56.5742C368.152 57.082 369.012 57.6875 369.793 58.3906C370.613 59.0547 371.297 59.875 371.844 60.8516C372.391 61.7891 372.664 62.9805 372.664 64.4258C372.664 66.3398 372 67.8828 370.672 69.0547C369.383 70.1875 367.801 70.7539 365.926 70.7539ZM385.496 82.6484C385.223 82.5312 384.734 82.3945 384.031 82.2383C383.367 82.043 382.566 81.8672 381.629 81.7109C380.691 81.5156 379.676 81.3594 378.582 81.2422C377.527 81.125 376.473 81.0664 375.418 81.0664C373.348 81.0664 371.414 81.3594 369.617 81.9453C367.859 82.5312 366.336 83.4102 365.047 84.582C363.758 85.7148 362.742 87.1602 362 88.918C361.258 90.6367 360.887 92.6289 360.887 94.8945C360.887 96.9648 361.219 98.6836 361.883 100.051C362.586 101.379 363.465 102.434 364.52 103.215C365.613 103.996 366.805 104.543 368.094 104.855C369.422 105.168 370.711 105.324 371.961 105.324C373.953 105.324 375.848 105.012 377.645 104.387C379.441 103.762 381.023 103.039 382.391 102.219C383.758 101.398 384.871 100.598 385.73 99.8164C386.59 99.0352 387.117 98.5078 387.312 98.2344C387.039 95.6172 386.785 93.2344 386.551 91.0859C386.434 90.1484 386.316 89.2305 386.199 88.332C386.121 87.4336 386.023 86.5938 385.906 85.8125C385.828 85.0312 385.75 84.3672 385.672 83.8203C385.594 83.2734 385.535 82.8828 385.496 82.6484ZM469.52 41.8672C471.512 41.8672 473.309 42.1797 474.91 42.8047C476.512 43.3906 477.879 44.2109 479.012 45.2656C480.145 46.3203 481.004 47.5508 481.59 48.957C482.215 50.3633 482.527 51.8672 482.527 53.4688C482.527 56.6328 481.766 59.0938 480.242 60.8516C478.758 62.5703 476.746 63.4297 474.207 63.4297C473.152 63.4297 472.176 63.2734 471.277 62.9609C470.379 62.6484 469.598 62.1797 468.934 61.5547C468.27 60.9297 467.742 60.168 467.352 59.2695C466.961 58.3711 466.766 57.3555 466.766 56.2227C466.766 54.9727 466.922 53.8594 467.234 52.8828C467.586 51.8672 467.762 50.8711 467.762 49.8945C467.762 48.5664 467.371 47.6484 466.59 47.1406C465.809 46.6328 464.91 46.3789 463.895 46.3789C462.566 46.3789 461.219 46.8281 459.852 47.7266C458.523 48.625 457.43 49.8164 456.57 51.3008C456.219 51.9648 455.906 52.668 455.633 53.4102C455.398 54.1133 455.281 54.7383 455.281 55.2852C455.281 55.5977 455.457 55.9492 455.809 56.3398C456.16 56.6914 456.609 57.1016 457.156 57.5703C457.742 58.0391 458.387 58.5859 459.09 59.2109C459.832 59.7969 460.555 60.4805 461.258 61.2617C462.508 62.6289 463.641 64.3477 464.656 66.418C465.672 68.4883 466.18 70.9297 466.18 73.7422C466.18 76.8672 465.828 79.6016 465.125 81.9453C464.422 84.25 463.445 86.2617 462.195 87.9805C460.984 89.6602 459.559 91.0664 457.918 92.1992C456.277 93.293 454.5 94.1719 452.586 94.8359C450.711 95.5 448.738 95.9688 446.668 96.2422C444.637 96.5156 442.625 96.6523 440.633 96.6523H438.348C435.809 97.082 433.738 97.8828 432.137 99.0547C430.574 100.227 429.793 101.75 429.793 103.625C429.793 104.836 430.184 105.852 430.965 106.672C431.746 107.492 432.781 108.195 434.07 108.781C435.398 109.328 436.922 109.777 438.641 110.129C440.359 110.441 442.137 110.734 443.973 111.008C445.848 111.242 447.703 111.477 449.539 111.711C451.414 111.945 453.152 112.219 454.754 112.531C457.449 113.078 460.047 113.801 462.547 114.699C465.086 115.598 467.312 116.789 469.227 118.273C471.18 119.797 472.742 121.691 473.914 123.957C475.086 126.223 475.672 128.977 475.672 132.219C475.672 134.758 475.242 137.121 474.383 139.309C473.523 141.535 472.332 143.566 470.809 145.402C469.285 147.277 467.488 148.977 465.418 150.5C463.348 152.023 461.121 153.332 458.738 154.426C455.613 155.871 452.195 156.965 448.484 157.707C444.773 158.449 440.906 158.82 436.883 158.82C433.133 158.82 429.617 158.41 426.336 157.59C423.055 156.77 420.184 155.5 417.723 153.781C415.301 152.102 413.387 149.973 411.98 147.395C410.574 144.816 409.871 141.789 409.871 138.312C409.871 135.461 410.34 132.883 411.277 130.578C412.215 128.273 413.406 126.203 414.852 124.367C416.336 122.57 417.977 120.988 419.773 119.621C421.609 118.254 423.387 117.082 425.105 116.105C426.863 115.129 428.484 114.328 429.969 113.703C431.453 113.078 432.605 112.609 433.426 112.297C432.059 112.141 430.672 111.867 429.266 111.477C427.898 111.086 426.648 110.559 425.516 109.895C424.422 109.23 423.523 108.391 422.82 107.375C422.117 106.32 421.766 105.07 421.766 103.625C421.766 101.711 422.586 100.09 424.227 98.7617C425.906 97.3945 428.25 96.3398 431.258 95.5977C429.031 95.0117 426.961 94.1719 425.047 93.0781C423.133 91.9453 421.473 90.5586 420.066 88.918C418.66 87.2773 417.547 85.3438 416.727 83.1172C415.945 80.8906 415.555 78.3711 415.555 75.5586C415.555 72.082 416.16 68.9766 417.371 66.2422C418.621 63.5078 420.301 61.2031 422.41 59.3281C424.52 57.4141 427 55.9688 429.852 54.9922C432.703 53.9766 435.77 53.4688 439.051 53.4688C440.027 53.4688 441.023 53.5273 442.039 53.6445C443.055 53.7227 444.012 53.8398 444.91 53.9961C445.809 54.1133 446.629 54.2305 447.371 54.3477C448.152 54.4258 448.777 54.4648 449.246 54.4648C450.223 54.4648 451.023 54.3281 451.648 54.0547C452.312 53.7812 452.918 53.1953 453.465 52.2969C454.246 51.0469 455.105 49.7969 456.043 48.5469C456.98 47.2969 458.074 46.1836 459.324 45.207C460.574 44.1914 462.02 43.3906 463.66 42.8047C465.34 42.1797 467.293 41.8672 469.52 41.8672ZM443.152 56.9844C441.668 56.9844 440.184 57.3359 438.699 58.0391C437.254 58.7031 435.945 59.8359 434.773 61.4375C433.641 63 432.703 65.0508 431.961 67.5898C431.258 70.1289 430.906 73.2344 430.906 76.9062C430.906 79.9141 431.219 82.4922 431.844 84.6406C432.508 86.75 433.348 88.5078 434.363 89.9141C435.418 91.2812 436.59 92.2969 437.879 92.9609C439.168 93.5859 440.438 93.8984 441.688 93.8984C442.781 93.8984 444.031 93.6445 445.438 93.1367C446.844 92.5898 448.172 91.5742 449.422 90.0898C450.672 88.6055 451.727 86.5547 452.586 83.9375C453.484 81.3203 453.934 77.9219 453.934 73.7422C453.934 68.1953 452.957 64.0156 451.004 61.2031C449.09 58.3906 446.473 56.9844 443.152 56.9844ZM424.754 134.621C424.754 137.473 425.164 140.129 425.984 142.59C426.844 145.09 428.094 147.258 429.734 149.094C431.375 150.969 433.387 152.434 435.77 153.488C438.152 154.582 440.887 155.129 443.973 155.129C447.488 155.129 450.516 154.562 453.055 153.43C455.594 152.336 457.684 150.871 459.324 149.035C460.965 147.238 462.176 145.148 462.957 142.766C463.738 140.422 464.129 137.98 464.129 135.441C464.129 132.98 463.816 130.656 463.191 128.469C462.566 126.32 461.609 124.367 460.32 122.609C459.031 120.852 457.371 119.309 455.34 117.98C453.309 116.691 450.887 115.676 448.074 114.934C446.238 114.426 444.48 114.035 442.801 113.762C441.121 113.527 439.598 113.352 438.23 113.234C436.863 114.055 435.379 115.109 433.777 116.398C432.215 117.727 430.75 119.27 429.383 121.027C428.055 122.824 426.941 124.855 426.043 127.121C425.184 129.387 424.754 131.887 424.754 134.621ZM527.41 81.9453C527.957 82.8438 528.445 84.0547 528.875 85.5781C529.344 87.1016 529.578 88.6445 529.578 90.207C529.578 93.0586 529.109 95.6172 528.172 97.8828C527.234 100.109 525.887 102.004 524.129 103.566C522.371 105.09 520.242 106.262 517.742 107.082C515.281 107.902 512.508 108.312 509.422 108.312C504.969 108.312 500.984 107.57 497.469 106.086C493.992 104.562 491.062 102.453 488.68 99.7578C486.297 97.0625 484.48 93.8594 483.23 90.1484C481.98 86.3984 481.355 82.2969 481.355 77.8438C481.355 73.8203 481.785 70.168 482.645 66.8867C483.504 63.6055 484.676 60.6758 486.16 58.0977C487.645 55.5195 489.363 53.2734 491.316 51.3594C493.27 49.4453 495.34 47.8633 497.527 46.6133C499.715 45.3633 501.941 44.4453 504.207 43.8594C506.473 43.2344 508.66 42.9219 510.77 42.9219C512.84 42.9219 514.988 43.1953 517.215 43.7422C519.441 44.2891 521.473 45.2266 523.309 46.5547C525.184 47.8828 526.707 49.6406 527.879 51.8281C529.09 53.9766 529.695 56.6914 529.695 59.9727C529.695 62.8242 529.266 65.3242 528.406 67.4727C527.586 69.6211 526.492 71.4766 525.125 73.0391C523.758 74.6016 522.195 75.8906 520.438 76.9062C518.719 77.9219 516.941 78.7422 515.105 79.3672C513.309 79.9531 511.531 80.3633 509.773 80.5977C508.055 80.832 506.531 80.9492 505.203 80.9492C503.289 80.9492 501.414 80.8125 499.578 80.5391C497.781 80.2656 496.375 79.9727 495.359 79.6602C495.516 82.707 495.984 85.6562 496.766 88.5078C497.586 91.3203 498.738 93.8008 500.223 95.9492C501.707 98.0977 503.543 99.8164 505.73 101.105C507.957 102.395 510.555 103.039 513.523 103.039C515.594 103.039 517.371 102.688 518.855 101.984C520.379 101.281 521.629 100.344 522.605 99.1719C523.582 97.9609 524.305 96.5742 524.773 95.0117C525.242 93.4492 525.477 91.8086 525.477 90.0898C525.477 89.0742 525.398 88.0195 525.242 86.9258C525.125 85.832 524.891 84.7969 524.539 83.8203C524.305 83.2344 524.109 82.6875 523.953 82.1797C523.797 81.6719 523.719 81.2617 523.719 80.9492C523.719 80.168 524.07 79.7773 524.773 79.7773C525.125 79.7773 525.535 79.9531 526.004 80.3047C526.512 80.6562 526.98 81.2031 527.41 81.9453ZM495.125 75.793C496.141 76.1055 497.293 76.3789 498.582 76.6133C499.871 76.8086 501.492 76.9062 503.445 76.9062C505.711 76.9062 507.801 76.4766 509.715 75.6172C511.629 74.7578 513.27 73.5664 514.637 72.043C516.004 70.4805 517.078 68.6055 517.859 66.418C518.641 64.2305 519.031 61.7891 519.031 59.0938C519.031 56.7109 518.758 54.7188 518.211 53.1172C517.703 51.4766 517.02 50.168 516.16 49.1914C515.301 48.2148 514.305 47.5312 513.172 47.1406C512.078 46.7109 510.945 46.4961 509.773 46.4961C508.289 46.4961 506.688 46.9453 504.969 47.8438C503.25 48.7422 501.648 50.3047 500.164 52.5312C498.719 54.7578 497.508 57.7656 496.531 61.5547C495.594 65.3047 495.125 70.0508 495.125 75.793Z" fill="black"/>
</svg>
